# This file uses centimeters as units for non-parametric coordinates.

mtllib Herb_Grass_Dead_A.mtl
g default
v -18.978790 0.000000 -3.595276
v 18.978790 0.000000 -3.595276
v -4.445496 31.628876 -6.071777
v 14.786453 19.877098 -6.071777
v 5.170471 25.752991 -2.476501
v 0.000000 0.000000 0.000000
v -11.712158 16.297668 -3.595276
v 2.585236 13.359726 0.000000
v 16.882629 10.421780 -3.595276
v -18.978790 0.000000 -3.595276
v 18.978790 0.000000 -3.595276
v -4.445496 31.628876 -6.071777
v 14.786453 19.877098 -6.071777
v 5.170471 25.752991 -2.476501
v 0.000000 0.000000 0.000000
v -11.712158 16.297668 -3.595276
v 2.585236 13.359726 0.000000
v 16.882629 10.421780 -3.595276
vt 0.252765 0.511531
vt 0.396287 0.482039
vt 0.375244 0.576954
vt 0.278716 0.635938
vt 0.109243 0.541023
vt 0.182188 0.694923
vt 0.036298 0.377421
vt 0.226813 0.377421
vt 0.417329 0.377421
vt 0.252765 0.511531
vt 0.278716 0.635938
vt 0.375244 0.576954
vt 0.396287 0.482039
vt 0.109243 0.541023
vt 0.182188 0.694923
vt 0.036298 0.377421
vt 0.226813 0.377421
vt 0.417329 0.377421
vn -0.000616 0.118284 0.992980
vn 0.255390 0.059294 0.965018
vn 0.348940 0.199755 0.915609
vn -0.018329 0.234665 0.971904
vn -0.202883 0.132031 0.970261
vn -0.000616 0.118284 0.992980
vn -0.018329 0.234665 0.971904
vn -0.197373 0.239946 0.950510
vn -0.204975 0.068090 0.976396
vn -0.047952 0.041443 0.997990
vn -0.000616 0.118284 0.992980
vn -0.202883 0.132031 0.970261
vn -0.047952 0.041443 0.997990
vn 0.210844 -0.004336 0.977510
vn 0.255390 0.059294 0.965018
vn -0.000616 0.118284 0.992980
vn 0.000616 -0.118284 -0.992980
vn 0.018329 -0.234665 -0.971904
vn -0.348940 -0.199755 -0.915609
vn -0.255390 -0.059294 -0.965018
vn 0.202883 -0.132031 -0.970261
vn 0.197373 -0.239946 -0.950510
vn 0.018329 -0.234665 -0.971904
vn 0.000616 -0.118284 -0.992980
vn 0.204975 -0.068090 -0.976396
vn 0.202883 -0.132031 -0.970261
vn 0.000616 -0.118284 -0.992980
vn 0.047952 -0.041443 -0.997990
vn 0.047952 -0.041443 -0.997990
vn 0.000616 -0.118284 -0.992980
vn -0.255390 -0.059294 -0.965018
vn -0.210844 0.004336 -0.977510
s off
g Herb_Grass_Dead_A
usemtl MI_Herb_Grass_SG
f 8/1/1 9/2/2 4/3/3 5/4/4
f 7/5/5 8/1/6 5/4/7 3/6/8
f 1/7/9 6/8/10 8/1/11 7/5/12
f 6/8/13 2/9/14 9/2/15 8/1/16
f 17/10/17 14/11/18 13/12/19 18/13/20
f 16/14/21 12/15/22 14/11/23 17/10/24
f 10/16/25 16/14/26 17/10/27 15/17/28
f 15/17/29 17/10/30 18/13/31 11/18/32
