# This file uses centimeters as units for non-parametric coordinates.

mtllib Herb_Grass_Dead_Cluster.mtl
g default
v -23.145592 0.000000 17.340332
v 23.145599 0.000000 -1.557434
v -13.562614 31.782303 7.223785
v 6.430252 29.111221 -0.173981
v -17.268578 17.413029 14.941101
v 15.915726 17.413029 1.394058
v 2.234161 0.000000 13.364136
v 1.557739 17.413029 13.640289
v -1.289757 31.782303 8.598297
v -4.735550 0.000000 -17.293854
v -19.765221 0.000000 17.561371
v -8.216064 31.628876 -2.967804
v -15.831131 19.877098 14.692291
v -15.325020 25.752991 4.438660
v -15.551811 0.000000 -1.289825
v -7.612854 16.297668 -10.621124
v -16.575455 13.359726 1.084137
v -18.935219 10.421780 15.636520
v 17.139847 0.000000 -11.460602
v -20.706703 0.000000 -1.319641
v 8.695068 24.905647 -4.537689
v -7.575485 22.812500 -0.751892
v 12.334930 13.645416 -10.173126
v -14.795731 13.645416 -2.903473
v -2.982330 0.000000 -10.864471
v -2.429291 13.645416 -11.012665
v -0.711227 24.905647 -6.812866
v 1.920120 0.000000 10.888504
v 12.610870 0.000000 -17.561371
v -1.517044 20.957458 8.576462
v -2.734970 34.227859 -13.261017
v 4.785034 23.574997 -13.076904
v 0.381668 14.171570 9.853653
v 9.928574 11.918968 -14.491364
v 1.533875 7.146173 10.628677
v 1.521378 30.398315 -1.001801
v 6.287384 20.703857 -0.233063
v 9.466812 10.447746 -0.531525
v 11.014313 0.000000 -1.927734
v -23.145592 0.000000 17.340332
v 23.145599 0.000000 -1.557434
v -13.562614 31.782303 7.223785
v 6.430252 29.111221 -0.173981
v -17.268578 17.413029 14.941101
v 15.915726 17.413029 1.394058
v 2.234161 0.000000 13.364136
v 1.557739 17.413029 13.640289
v -1.289757 31.782303 8.598297
v -4.735550 0.000000 -17.293854
v -19.765221 0.000000 17.561371
v -8.216064 31.628876 -2.967804
v -15.831131 19.877098 14.692291
v -15.325020 25.752991 4.438660
v -15.551811 0.000000 -1.289825
v -7.612854 16.297668 -10.621124
v -16.575455 13.359726 1.084137
v -18.935219 10.421780 15.636520
v 17.139847 0.000000 -11.460602
v -20.706703 0.000000 -1.319641
v 8.695068 24.905647 -4.537689
v -7.575485 22.812500 -0.751892
v 12.334930 13.645416 -10.173126
v -14.795731 13.645416 -2.903473
v -2.982330 0.000000 -10.864471
v -2.429291 13.645416 -11.012665
v -0.711227 24.905647 -6.812866
v 1.920120 0.000000 10.888504
v 12.610870 0.000000 -17.561371
v -1.517044 20.957458 8.576462
v -2.734970 34.227859 -13.261017
v 4.785034 23.574997 -13.076904
v 0.381668 14.171570 9.853653
v 9.928574 11.918968 -14.491364
v 1.533875 7.146173 10.628677
v 1.521378 30.398315 -1.001801
v 6.287384 20.703857 -0.233063
v 9.466812 10.447746 -0.531525
v 11.014313 0.000000 -1.927734
vt 0.523389 0.552219
vt 0.587111 0.727017
vt 0.695957 0.727017
vt 0.703291 0.552219
vt 0.459667 0.377421
vt 0.710626 0.377421
vt 0.883193 0.552219
vt 0.961584 0.377421
vt 0.804803 0.727017
vt 0.252765 0.511531
vt 0.278716 0.635938
vt 0.375244 0.576954
vt 0.396287 0.482039
vt 0.109243 0.541023
vt 0.182188 0.694923
vt 0.036298 0.377421
vt 0.226813 0.377421
vt 0.417329 0.377421
vt 0.523389 0.552219
vt 0.587111 0.727017
vt 0.695957 0.727017
vt 0.703291 0.552219
vt 0.459667 0.377421
vt 0.710626 0.377421
vt 0.883193 0.552219
vt 0.961584 0.377421
vt 0.804803 0.727017
vt 0.467584 0.869160
vt 0.381547 0.851999
vt 0.355108 0.960318
vt 0.467584 0.994639
vt 0.295511 0.834839
vt 0.209475 0.817678
vt 0.130156 0.891675
vt 0.242632 0.925997
vt 0.348390 0.743681
vt 0.288793 0.743681
vt 0.407987 0.743681
vt 0.467584 0.743681
vt 0.523389 0.552219
vt 0.703291 0.552219
vt 0.695957 0.727017
vt 0.587111 0.727017
vt 0.459667 0.377421
vt 0.710626 0.377421
vt 0.961584 0.377421
vt 0.883193 0.552219
vt 0.804803 0.727017
vt 0.252765 0.511531
vt 0.396287 0.482039
vt 0.375244 0.576954
vt 0.278716 0.635938
vt 0.109243 0.541023
vt 0.182188 0.694923
vt 0.036298 0.377421
vt 0.226813 0.377421
vt 0.417329 0.377421
vt 0.523389 0.552219
vt 0.703291 0.552219
vt 0.695957 0.727017
vt 0.587111 0.727017
vt 0.459667 0.377421
vt 0.710626 0.377421
vt 0.961584 0.377421
vt 0.883193 0.552219
vt 0.804803 0.727017
vt 0.467584 0.869160
vt 0.467584 0.994639
vt 0.355108 0.960318
vt 0.381547 0.851999
vt 0.295511 0.834839
vt 0.242632 0.925997
vt 0.130156 0.891675
vt 0.209475 0.817678
vt 0.348390 0.743681
vt 0.288793 0.743681
vt 0.407987 0.743681
vt 0.467584 0.743681
vn -0.083178 -0.155494 -0.984329
vn 0.002166 -0.405837 -0.913943
vn -0.291561 -0.457962 -0.839800
vn -0.365740 -0.201726 -0.908593
vn -0.118423 -0.042793 -0.992041
vn -0.083178 -0.155494 -0.984329
vn -0.365740 -0.201726 -0.908593
vn -0.383963 -0.056194 -0.921637
vn -0.383963 -0.056194 -0.921637
vn -0.365740 -0.201726 -0.908593
vn -0.628019 -0.165996 -0.760287
vn -0.608950 -0.064979 -0.790543
vn -0.291561 -0.457962 -0.839800
vn -0.641026 -0.459223 -0.614979
vn -0.628019 -0.165996 -0.760287
vn -0.365740 -0.201726 -0.908593
vn 0.911578 -0.118284 0.393745
vn 0.885210 -0.234665 0.401666
vn 0.978940 -0.199755 0.042124
vn 0.987269 -0.059294 0.147592
vn 0.810626 -0.132031 0.570485
vn 0.794672 -0.239946 0.557605
vn 0.885210 -0.234665 0.401666
vn 0.911578 -0.118284 0.393745
vn 0.815431 -0.068091 0.574835
vn 0.810626 -0.132031 0.570485
vn 0.911578 -0.118284 0.393745
vn 0.897434 -0.041443 0.439197
vn 0.897434 -0.041443 0.439197
vn 0.911578 -0.118284 0.393745
vn 0.987269 -0.059294 0.147592
vn 0.981102 0.004336 0.193443
vn -0.040969 -0.155494 0.986987
vn -0.116809 -0.405836 0.906451
vn 0.183899 -0.457961 0.869743
vn 0.248862 -0.201726 0.947298
vn -0.006970 -0.042793 0.999060
vn -0.040969 -0.155494 0.986987
vn 0.248862 -0.201726 0.947298
vn 0.265304 -0.056194 0.962526
vn 0.265304 -0.056194 0.962526
vn 0.248862 -0.201726 0.947298
vn 0.527675 -0.165997 0.833069
vn 0.504960 -0.064979 0.860693
vn 0.183899 -0.457961 0.869743
vn 0.558809 -0.459223 0.690541
vn 0.527675 -0.165997 0.833069
vn 0.248862 -0.201726 0.947298
vn -0.951055 -0.129604 -0.280530
vn -0.930088 -0.211277 -0.300496
vn -0.965521 -0.255160 -0.051600
vn -0.982370 -0.170442 -0.076800
vn -0.882757 -0.388119 -0.264773
vn -0.858742 -0.499478 -0.114384
vn -0.855774 -0.513960 0.059127
vn -0.896452 -0.442569 0.022523
vn -0.930088 -0.211277 -0.300496
vn -0.882757 -0.388119 -0.264773
vn -0.896452 -0.442569 0.022523
vn -0.965521 -0.255160 -0.051600
vn -0.752748 -0.257751 -0.605751
vn -0.703316 -0.360486 -0.612696
vn -0.858742 -0.499478 -0.114384
vn -0.882757 -0.388119 -0.264773
vn -0.797897 -0.115231 -0.591677
vn -0.752748 -0.257751 -0.605751
vn -0.882757 -0.388119 -0.264773
vn -0.930088 -0.211277 -0.300496
vn -0.810880 -0.051471 -0.582944
vn -0.797897 -0.115231 -0.591677
vn -0.930088 -0.211277 -0.300496
vn -0.951055 -0.129604 -0.280530
vn 0.083178 0.155494 0.984329
vn 0.365740 0.201726 0.908593
vn 0.291561 0.457961 0.839800
vn -0.002166 0.405837 0.913943
vn 0.118423 0.042793 0.992041
vn 0.383963 0.056194 0.921637
vn 0.365740 0.201726 0.908593
vn 0.083178 0.155494 0.984329
vn 0.383963 0.056194 0.921637
vn 0.608950 0.064979 0.790543
vn 0.628019 0.165996 0.760288
vn 0.365740 0.201726 0.908593
vn 0.291561 0.457961 0.839800
vn 0.365740 0.201726 0.908593
vn 0.628019 0.165996 0.760288
vn 0.641026 0.459223 0.614979
vn -0.911578 0.118284 -0.393745
vn -0.987269 0.059294 -0.147592
vn -0.978940 0.199755 -0.042124
vn -0.885210 0.234665 -0.401666
vn -0.810626 0.132031 -0.570485
vn -0.911578 0.118284 -0.393745
vn -0.885210 0.234665 -0.401666
vn -0.794672 0.239946 -0.557605
vn -0.815431 0.068091 -0.574835
vn -0.897434 0.041443 -0.439197
vn -0.911578 0.118284 -0.393745
vn -0.810626 0.132031 -0.570485
vn -0.897434 0.041443 -0.439197
vn -0.981102 -0.004336 -0.193443
vn -0.987269 0.059294 -0.147592
vn -0.911578 0.118284 -0.393745
vn 0.040969 0.155494 -0.986987
vn -0.248862 0.201726 -0.947298
vn -0.183899 0.457961 -0.869743
vn 0.116809 0.405836 -0.906451
vn 0.006970 0.042793 -0.999060
vn -0.265304 0.056194 -0.962526
vn -0.248862 0.201726 -0.947298
vn 0.040969 0.155494 -0.986987
vn -0.265304 0.056194 -0.962526
vn -0.504960 0.064979 -0.860693
vn -0.527675 0.165997 -0.833069
vn -0.248862 0.201726 -0.947298
vn -0.183899 0.457961 -0.869743
vn -0.248862 0.201726 -0.947298
vn -0.527675 0.165997 -0.833069
vn -0.558809 0.459223 -0.690541
vn 0.951055 0.129604 0.280530
vn 0.982370 0.170442 0.076800
vn 0.965521 0.255160 0.051600
vn 0.930088 0.211277 0.300496
vn 0.882757 0.388119 0.264773
vn 0.896452 0.442569 -0.022523
vn 0.855774 0.513960 -0.059127
vn 0.858742 0.499478 0.114384
vn 0.930088 0.211277 0.300496
vn 0.965521 0.255160 0.051600
vn 0.896452 0.442569 -0.022523
vn 0.882757 0.388119 0.264773
vn 0.752748 0.257751 0.605751
vn 0.882757 0.388119 0.264773
vn 0.858742 0.499478 0.114384
vn 0.703316 0.360486 0.612696
vn 0.797897 0.115231 0.591677
vn 0.930088 0.211277 0.300496
vn 0.882757 0.388119 0.264773
vn 0.752748 0.257751 0.605751
vn 0.810880 0.051471 0.582944
vn 0.951055 0.129604 0.280530
vn 0.930088 0.211277 0.300496
vn 0.797897 0.115231 0.591677
s off
g Herb_Grass_Dead_Cluster
usemtl MI_Herb_Grass_SG
f 5/1/1 3/2/2 9/3/3 8/4/4
f 1/5/5 5/1/6 8/4/7 7/6/8
f 7/6/9 8/4/10 6/7/11 2/8/12
f 9/3/13 4/9/14 6/7/15 8/4/16
f 17/10/17 14/11/18 13/12/19 18/13/20
f 16/14/21 12/15/22 14/11/23 17/10/24
f 10/16/25 16/14/26 17/10/27 15/17/28
f 15/17/29 17/10/30 18/13/31 11/18/32
f 23/19/33 21/20/34 27/21/35 26/22/36
f 19/23/37 23/19/38 26/22/39 25/24/40
f 25/24/41 26/22/42 24/25/43 20/26/44
f 27/21/45 22/27/46 24/25/47 26/22/48
f 39/28/49 38/29/50 34/30/51 29/31/52
f 37/32/53 36/33/54 31/34/55 32/35/56
f 38/29/57 37/32/58 32/35/59 34/30/60
f 33/36/61 30/37/62 36/33/63 37/32/64
f 35/38/65 33/36/66 37/32/67 38/29/68
f 28/39/69 35/38/70 38/29/71 39/28/72
f 44/40/73 47/41/74 48/42/75 42/43/76
f 40/44/77 46/45/78 47/41/79 44/40/80
f 46/45/81 41/46/82 45/47/83 47/41/84
f 48/42/85 47/41/86 45/47/87 43/48/88
f 56/49/89 57/50/90 52/51/91 53/52/92
f 55/53/93 56/49/94 53/52/95 51/54/96
f 49/55/97 54/56/98 56/49/99 55/53/100
f 54/56/101 50/57/102 57/50/103 56/49/104
f 62/58/105 65/59/106 66/60/107 60/61/108
f 58/62/109 64/63/110 65/59/111 62/58/112
f 64/63/113 59/64/114 63/65/115 65/59/116
f 66/60/117 65/59/118 63/65/119 61/66/120
f 78/67/121 68/68/122 73/69/123 77/70/124
f 76/71/125 71/72/126 70/73/127 75/74/128
f 77/70/129 73/69/130 71/72/131 76/71/132
f 72/75/133 76/71/134 75/74/135 69/76/136
f 74/77/137 77/70/138 76/71/139 72/75/140
f 67/78/141 78/67/142 77/70/143 74/77/144
