# This file uses centimeters as units for non-parametric coordinates.

g default
v -12.500000 0.000000 -3.040543
v 12.500000 0.000000 -3.040543
v 4.296577 27.129242 11.221939
v -12.531021 25.530243 12.815704
v 7.778519 20.156750 3.678223
v -11.670151 19.119125 4.356079
v 10.571327 10.784897 -1.293640
v -11.601257 10.162512 -1.147835
v -3.747284 23.898499 13.678741
v -1.774078 17.831444 6.416733
v -0.471268 9.516815 1.656708
v 0.000000 0.000000 0.000000
v -12.500000 0.000000 -3.040543
v 12.500000 0.000000 -3.040543
v 4.296577 27.129242 11.221939
v -12.531021 25.530243 12.815704
v 7.778519 20.156750 3.678223
v -11.670151 19.119125 4.356079
v 10.571327 10.784897 -1.293640
v -11.601257 10.162512 -1.147835
v -3.747284 23.898499 13.678741
v -1.774078 17.831444 6.416733
v -0.471268 9.516815 1.656708
v 0.000000 0.000000 0.000000
vt 0.870687 0.869160
vt 0.870687 0.994639
vt 0.779733 0.979977
vt 0.773073 0.868885
vt 0.675460 0.868611
vt 0.688780 0.965315
vt 0.597826 0.950653
vt 0.577846 0.868336
vt 0.662139 0.771906
vt 0.557865 0.786019
vt 0.766413 0.757793
vt 0.870687 0.743681
vt 0.870687 0.869160
vt 0.773073 0.868885
vt 0.779733 0.979977
vt 0.870687 0.994639
vt 0.675460 0.868611
vt 0.577846 0.868336
vt 0.597826 0.950653
vt 0.688780 0.965315
vt 0.662139 0.771906
vt 0.557865 0.786019
vt 0.766413 0.757793
vt 0.870687 0.743681
vn 0.005193 -0.153904 0.988072
vn 0.251109 -0.131100 0.959040
vn 0.282794 -0.269885 0.920429
vn 0.021104 -0.318538 0.947675
vn 0.066995 -0.614066 0.786406
vn 0.355588 -0.512783 0.781416
vn 0.395455 -0.612107 0.684792
vn 0.095901 -0.736694 0.669392
vn 0.021104 -0.318538 0.947675
vn 0.282794 -0.269885 0.920429
vn 0.355588 -0.512783 0.781416
vn 0.066995 -0.614066 0.786406
vn -0.229855 -0.657981 0.717096
vn 0.066995 -0.614066 0.786406
vn 0.095901 -0.736694 0.669392
vn -0.213770 -0.783565 0.583376
vn -0.243724 -0.344473 0.906608
vn 0.021104 -0.318538 0.947675
vn 0.066995 -0.614066 0.786406
vn -0.229855 -0.657981 0.717096
vn -0.241045 -0.167192 0.956004
vn 0.005193 -0.153904 0.988072
vn 0.021104 -0.318538 0.947675
vn -0.243724 -0.344473 0.906608
vn -0.005193 0.153904 -0.988072
vn -0.021104 0.318538 -0.947675
vn -0.282794 0.269885 -0.920429
vn -0.251109 0.131100 -0.959040
vn -0.066995 0.614066 -0.786406
vn -0.095901 0.736694 -0.669392
vn -0.395455 0.612107 -0.684793
vn -0.355587 0.512783 -0.781416
vn -0.021104 0.318538 -0.947675
vn -0.066995 0.614066 -0.786406
vn -0.355587 0.512783 -0.781416
vn -0.282794 0.269885 -0.920429
vn 0.229855 0.657981 -0.717096
vn 0.213770 0.783565 -0.583376
vn -0.095901 0.736694 -0.669392
vn -0.066995 0.614066 -0.786406
vn 0.243724 0.344473 -0.906608
vn 0.229855 0.657981 -0.717096
vn -0.066995 0.614066 -0.786406
vn -0.021104 0.318538 -0.947675
vn 0.241045 0.167192 -0.956004
vn 0.243724 0.344473 -0.906608
vn -0.021104 0.318538 -0.947675
vn -0.005193 0.153904 -0.988072
s off
g Herb_Grass_Lush_C
f 12/1/1 2/2/2 7/3/3 11/4/4
f 10/5/5 5/6/6 3/7/7 9/8/8
f 11/4/9 7/3/10 5/6/11 10/5/12
f 6/9/13 10/5/14 9/8/15 4/10/16
f 8/11/17 11/4/18 10/5/19 6/9/20
f 1/12/21 12/1/22 11/4/23 8/11/24
f 24/13/25 23/14/26 19/15/27 14/16/28
f 22/17/29 21/18/30 15/19/31 17/20/32
f 23/14/33 22/17/34 17/20/35 19/15/36
f 18/21/37 16/22/38 21/18/39 22/17/40
f 20/23/41 18/21/42 22/17/43 23/14/44
f 13/24/45 20/23/46 23/14/47 24/13/48
