# This file uses centimeters as units for non-parametric coordinates.

mtllib Herb_Grass_Dead_B.mtl
g default
v -25.000000 0.000000 -5.911169
v 25.000000 0.000000 -5.911169
v -12.304245 31.782303 -11.655380
v 9.001648 29.111221 -10.947987
v -18.652130 17.413029 -5.911169
v 17.190872 17.413029 -5.911169
v 0.000000 0.000000 0.000000
v -0.730629 17.413029 0.000000
v -1.461243 31.782303 -5.744205
v -25.000000 0.000000 -5.911169
v 25.000000 0.000000 -5.911169
v -12.304245 31.782303 -11.655380
v 9.001648 29.111221 -10.947987
v -18.652130 17.413029 -5.911169
v 17.190872 17.413029 -5.911169
v 0.000000 0.000000 0.000000
v -0.730629 17.413029 0.000000
v -1.461243 31.782303 -5.744205
vt 0.523389 0.552219
vt 0.703291 0.552219
vt 0.695957 0.727017
vt 0.587111 0.727017
vt 0.459667 0.377421
vt 0.710626 0.377421
vt 0.961584 0.377421
vt 0.883193 0.552219
vt 0.804803 0.727017
vt 0.523389 0.552219
vt 0.587111 0.727017
vt 0.695957 0.727017
vt 0.703291 0.552219
vt 0.459667 0.377421
vt 0.710626 0.377421
vt 0.883193 0.552219
vt 0.961584 0.377421
vt 0.804803 0.727017
vn -0.312382 0.228715 0.922012
vn 0.003580 0.262076 0.965041
vn 0.007280 0.462786 0.886440
vn -0.347435 0.405837 0.845332
vn -0.265308 0.042793 0.963214
vn -0.000165 0.055890 0.998437
vn 0.003580 0.262076 0.965041
vn -0.312382 0.228715 0.922012
vn -0.000165 0.055890 0.998437
vn 0.264991 0.064979 0.962059
vn 0.320612 0.268461 0.908370
vn 0.003580 0.262076 0.965041
vn 0.007280 0.462786 0.886440
vn 0.003580 0.262076 0.965041
vn 0.320612 0.268461 0.908370
vn 0.361043 0.459223 0.811642
vn 0.312382 -0.228715 -0.922012
vn 0.347435 -0.405837 -0.845332
vn -0.007280 -0.462786 -0.886440
vn -0.003580 -0.262076 -0.965041
vn 0.265308 -0.042793 -0.963214
vn 0.312382 -0.228715 -0.922012
vn -0.003580 -0.262076 -0.965041
vn 0.000165 -0.055890 -0.998437
vn 0.000165 -0.055890 -0.998437
vn -0.003580 -0.262076 -0.965041
vn -0.320612 -0.268461 -0.908370
vn -0.264990 -0.064979 -0.962059
vn -0.007280 -0.462786 -0.886440
vn -0.361043 -0.459223 -0.811642
vn -0.320612 -0.268461 -0.908370
vn -0.003580 -0.262076 -0.965041
s off
g Herb_Grass_Dead_B
usemtl MI_Herb_Grass_SG
f 5/1/1 8/2/2 9/3/3 3/4/4
f 1/5/5 7/6/6 8/2/7 5/1/8
f 7/6/9 2/7/10 6/8/11 8/2/12
f 9/3/13 8/2/14 6/8/15 4/9/16
f 14/10/17 12/11/18 18/12/19 17/13/20
f 10/14/21 14/10/22 17/13/23 16/15/24
f 16/15/25 17/13/26 15/16/27 11/17/28
f 18/12/29 13/18/30 15/16/31 17/13/32
